<svg width="60" height="60" viewBox="0 0 60 60" xmlns="http://www.w3.org/2000/svg" xmlns:xlink="http://www.w3.org/1999/xlink" xmlns:sketch="http://www.bohemiancoding.com/sketch/ns"><title>Parachute</title><desc>Created with Sketch.</desc><g id="outlined" stroke="none" stroke-width="1" fill="none" fill-rule="evenodd" sketch:type="MSPage"><g id="Activities" sketch:type="MSLayerGroup" transform="translate(-374.000000, -961.000000)" stroke="#535353" stroke-width="2" stroke-linecap="round" stroke-linejoin="round"><g id="Parachute" transform="translate(380.000000, 965.000000)" sketch:type="MSShapeGroup"><path d="M48 24C48 10.745166 37.254834.0 24 0 10.745166.0.0 10.745166.0 24 0 20.6862915 2.6862915 18 6 18 9.3137085 18 12 20.6862915 12 24v0C12 20.6862915 14.6862915 18 18 18 21.3137085 18 24 20.6862915 24 24 24 20.6862915 26.6862915 18 30 18 33.3137085 18 36 20.6862915 36 24 36 20.6862915 38.6862915 18 42 18 45.3137085 18 48 20.6862915 48 24z" id="Oval-1022"/><circle id="Oval-1026" cx="24.5" cy="46.5" r="2.5"/><path d="M27 52l4-4" id="Line"/><path d="M18 52l4-4" id="Line-280" transform="translate(20.000000, 50.000000) scale(-1, 1) translate(-20.000000, -50.000000)"/><path d="M2.00000001 27 19.2173745 43.2692779" id="Path-2429"/><path d="M29.2883044 27 46.5056789 43.2692779" id="Path-2429" transform="translate(38.000000, 35.028512) scale(-1, 1) translate(-38.000000, -35.028512)"/><path d="M12.6258957 26.3556054 22.2108584 40.8520585" id="Path-2431"/><path d="M26.5 26.3556054 36.0849626 40.8520585" id="Path-2431" transform="translate(31.292481, 33.603832) scale(-1, 1) translate(-31.292481, -33.603832)"/><path d="M23.9911083 22.9999973V37.7549954" id="Path-2433"/></g></g></g></svg>