<svg width="60" height="60" viewBox="0 0 60 60" xmlns="http://www.w3.org/2000/svg" xmlns:xlink="http://www.w3.org/1999/xlink" xmlns:sketch="http://www.bohemiancoding.com/sketch/ns"><title>Umbrella</title><desc>Created with Sketch.</desc><g id="outlined" stroke="none" stroke-width="1" fill="none" fill-rule="evenodd" sketch:type="MSPage"><g id="Activities" sketch:type="MSLayerGroup" transform="translate(-254.000000, -1.000000)" stroke="#535353" stroke-width="2" stroke-linejoin="round"><g id="Umbrella" transform="translate(260.000000, 5.000000)" sketch:type="MSShapeGroup"><path d="M12.9170416 31C12.4409635 33.8377133 9.97299629 36 7 36 4.02700371 36 1.55903653 33.8377133 1.08295844 31H1V24H49v7H48.9170416C48.4409635 33.8377133 45.9729963 36 43 36 40.0270037 36 37.5590365 33.8377133 37.0829584 31H36.9170416C36.4409635 33.8377133 33.9729963 36 31 36 28.0270037 36 25.5590365 33.8377133 25.0829584 31H24.9170416C24.4409635 33.8377133 21.9729963 36 19 36 16.0270037 36 13.5590365 33.8377133 13.0829584 31H12.9170416z" id="Oval-800" stroke-linecap="round"/><path id="Triangle-27" stroke-linecap="round" d="M25 4 50 24H0z"/><path d="M25 4V0" id="Line" stroke-linecap="square"/><path d="M23 39V54" id="Line" stroke-linecap="square"/><path d="M27 39V54" id="Line" stroke-linecap="square"/></g></g></g></svg>